# AST/ASF file generated using VICON BodyLanguage
# -----------------------------------------------
:version 1.10
:name VICON
:units
  mass 1.0
  length 0.45
  angle deg
:documentation
   .ast/.asf automatically generated from VICON data using
   VICON BodyBuilder and BodyLanguage model FoxedUp or BRILLIANT.MOD
:root
   order TX TY TZ RX RY RZ
   axis XYZ
   position 0 0 0  
   orientation 0 0 0 
:bonedata
  begin
     id 1 
     name lhipjoint
     direction 0.575328 -0.747301 0.332475 
     length 2.40933 
     axis 0 0 0  XYZ
  end
  begin
     id 2 
     name lfemur
     direction 0.34202 -0.939693 0  
     length 7.31453  
     axis 0 0 20  XYZ
    dof rx ry rz
    limits (-160.0 20.0)
           (-70.0 70.0)
           (-60.0 70.0)
  end
  begin
     id 3 
     name ltibia
     direction 0.34202 -0.939693 0   
     length 7.82185   
     axis 0 0 20   XYZ
    dof rx
    limits (-10.0 170.0)
  end
  begin
     id 4 
     name lfoot
     direction 0.0795993 -0.218697 0.972541   
     length 2.19173   
     axis -90 7.62852e-016 20   XYZ
    dof rx rz
    limits (-45.0 90.0)
           (-70.0 20.0)
  end
  begin
     id 5 
     name ltoes
     direction 1.53537e-011 -4.21894e-011 1   
     length 1.10023   
     axis -90 7.62852e-016 20   XYZ
    dof rx
    limits (-90.0 20.0)
  end
  begin
     id 6 
     name rhipjoint
     direction -0.513884 -0.783789 0.348708   
     length 2.29716  
     axis 0 0 0  XYZ 
  end
  begin
     id 7 
     name rfemur
     direction -0.34202 -0.939693 0   
     length 7.59573   
     axis 0 0 -20   XYZ
    dof rx ry rz
    limits (-160.0 20.0)
           (-70.0 70.0)
           (-70.0 60.0)
  end
  begin
     id 8 
     name rtibia
     direction -0.34202 -0.939693 0   
     length 7.66402   
     axis 0 0 -20   XYZ
    dof rx
    limits (-10.0 170.0)
 end
 begin
     id 9 
     name rfoot
     direction -0.137793 -0.378584 0.915253   
     length 2.27056  
     axis -90 -7.62852e-016 -20   XYZ
    dof rx rz
    limits (-45.0 90.0)
           (-20.0 70.0)
  end
  begin
     id 10 
     name rtoes
     direction -1.53493e-011 -4.22159e-011 1   
     length 1.11766   
     axis -90 -7.62852e-016 -20   XYZ
    dof rx
    limits (-90.0 20.0)
  end
  begin
     id 11 
     name lowerback
     direction -0.00732775 0.998356 -0.05685   
     length 2.16513   
     axis 0 0 0   XYZ
    dof rx ry rz
    limits (-20.0 45.0)
           (-30.0 30.0)
           (-30.0 30.0)
  end
  begin
     id 12 
     name upperback
     direction 0.0218081 0.999627 -0.0164647   
     length 2.16755   
     axis 0 0 0   XYZ
    dof rx ry rz
    limits (-20.0 45.0)
           (-30.0 30.0)
           (-30.0 30.0)
  end
  begin
     id 13 
     name thorax
     direction 0.02365 0.999661 0.0108914   
     length 2.16932   
     axis 0 0 0   XYZ
    dof rx ry rz
    limits (-20.0 45.0)
           (-30.0 30.0)
           (-30.0 30.0)
  end
  begin
     id 14 
     name lowerneck
     direction -0.0523929 0.978385 0.200044   
     length 1.63877   
     axis 0 0 0   XYZ
    dof rx ry rz
    limits (-20.0 45.0)
           (-30.0 30.0)
           (-30.0 30.0)
  end
  begin
     id 15 
     name upperneck
     direction 0.0448674 0.981321 -0.187074   
     length 1.69014   
     axis 0 0 0   XYZ
    dof rx ry rz
    limits (-20.0 45.0)
           (-30.0 30.0)
           (-30.0 30.0)
  end
  begin
     id 16
     name head
     direction 0.0199089 0.996118 -0.0857429  
     length 1.70094  
     axis 0 0 0   XYZ
    dof rx ry rz
    limits (-20.0 45.0)
           (-30.0 30.0)
           (-30.0 30.0)
  end
  begin
     id 17 
     name lclavicle
     direction 0.940366 0.30191 -0.156722  
     length 3.37521  
     axis 0 0 0   XYZ
    dof ry rz
    limits (-20.0 10.0)
           (0.0 20.0)
  end
  begin
     id 18 
     name lhumerus
     direction 1 -4.4897e-011 -1.7911e-027   
     length 5.25287   
     axis 180 -30 -90   XYZ
    dof rx ry rz
    limits (-60.0 90.0)
           (-90.0 90.0)
           (-90.0 90.0)
  end
  begin
     id 19
     name lradius
     direction 1 -4.48951e-011 1.04424e-027   
     length 3.51014   
     axis 180 -30 -90   XYZ
    dof rx
    limits (-10.0 170.0)
  end
  begin
     id 20
     name lwrist
     direction 1 -4.48997e-011 -9.5942e-028   
     length 1.75507   
     axis 8.48502e-016 90 90   XYZ
    dof ry
    limits (-180.0 0.0)
 end
  begin
     id 21 
     name lhand
     direction 1 -4.48831e-011 -1.90777e-027   
     length 0.706179   
     axis 1.22306e-015 90 90   XYZ
    dof rx rz
    limits (-90.0 90.0)
           (-45.0 45.0)
  end
  begin
     id 22 
     name lfingers
     direction 1 -4.49108e-011 -3.85244e-027   
     length 0.569339   
     axis 2.44611e-015 90 90   XYZ
    dof rx
    limits (0.0 90.0)
  end
  begin
     id 23
     name lthumb
     direction 0.707107 -6.34953e-011 0.707107   
     length 0.817461   
     axis -90 45 -1.62303e-014   XYZ
    dof rx rz
    limits (-45.0 45.0)
           (-45.0 45.0)
  end
  begin
     id 24 
     name rclavicle
     direction -0.905329 0.382405 -0.184787   
     length 3.30787  
     axis 0 0 0   XYZ 
    dof ry rz
    limits (-10.0 20.0)
           (-20.0 0.0)
  end
  begin
     id 25 
     name rhumerus
     direction -1 -4.48953e-011 -9.15316e-029  
     length 5.28721   
     axis 180 30 90   XYZ
    dof rx ry rz
    limits (-90.0 60.0)
           (-90.0 90.0)
           (-90.0 90.0)
  end
  begin
     id 26 
     name rradius
     direction -1 -4.48987e-011 9.37824e-028   
     length 3.50544   
     axis 180 30 90   XYZ
    dof rx
    limits (-10.0 170.0)
  end
  begin
     id 27 
     name rwrist
     direction -1 -4.48967e-011 -9.58414e-028   
     length 1.75272   
     axis 8.48502e-016 -90 -90   XYZ
    dof ry
    limits (-180.0 0.0)
  end
  begin
     id 28
     name rhand
     direction -1 -4.48904e-011 -1.91266e-027   
     length 0.884996   
     axis 1.22306e-015 -90 -90   XYZ
    dof rx rz
    limits (-90.0 90.0)
           (-45.0 45.0)
  end
  begin
     id 29
     name rfingers
     direction -1 -4.4909e-011 -3.85015e-027   
     length 0.713507   
     axis 2.44611e-015 -90 -90   XYZ
    dof rx
    limits (0.0 90.0)
  end
  begin
     id 30
     name rthumb
     direction -0.707107 -6.34853e-011 0.707107   
     length 1.02446   
     axis -90 -45 1.62303e-014   XYZ
    dof rx rz
    limits (-45.0 45.0)
           (-45.0 45.0)
  end
:hierarchy
  begin
    root lhipjoint rhipjoint lowerback
    lhipjoint lfemur
    lfemur ltibia
    ltibia lfoot
    lfoot ltoes
    rhipjoint rfemur
    rfemur rtibia
    rtibia rfoot
    rfoot rtoes
    lowerback upperback
    upperback thorax
    thorax lowerneck lclavicle rclavicle
    lowerneck upperneck
    upperneck head
    lclavicle lhumerus
    lhumerus lradius
    lradius lwrist
    lwrist lhand lthumb
    lhand lfingers
    rclavicle rhumerus
    rhumerus rradius
    rradius rwrist
    rwrist rhand rthumb
    rhand rfingers
  end

#!OML:ASF F:\twosubjects\two\Thursday\Session 1\justin.ASF
:FULLY-SPECIFIED
:DEGREES
211
root 7.07462 9.44667 -18.1828 -28.2582 1.48621 0.312242
lowerback 37.0755 3.07883 -3.27969
upperback 12.4674 2.77057 0.529663
thorax -4.64873 1.26009 1.28043
lowerneck -20.8817 -5.4549 -10.4203
upperneck 12.2222 -6.15625 10.0906
head 7.83245 -2.47413 4.2761
rclavicle 1.84373e-014 2.18663e-015
rhumerus 12.2956 15.5709 -78.1099
rradius 93.3123
rwrist 4.32417
rhand -21.7876 10.4434
rfingers 7.12502
rthumb 4.61383 -19.4863
lclavicle 1.84373e-014 2.18663e-015
lhumerus 17.1681 -24.3033 76.8522
lradius 85.8743
lwrist -13.8514
lhand -9.43394 32.0218
lfingers 7.12502
lthumb 16.5287 61.3379
rfemur -62.9177 -19.0521 2.02784
rtibia 99.7129
rfoot -5.67897 -3.86361
rtoes -1.85039
lfemur -60.8818 17.6497 0.751928
ltibia 94.3061
lfoot -7.09824 -17.5128
ltoes -21.3035
212
root 7.0845 9.44973 -18.1787 -28.2491 1.47937 -0.0166815
lowerback 36.8975 2.89246 -2.90003
upperback 12.2377 2.68437 0.621282
thorax -4.83363 1.22882 1.21064
lowerneck -20.4015 -5.37737 -10.7935
upperneck 12.6525 -6.07273 10.3658
head 7.90784 -2.43886 4.45255
rclavicle -1.99779e-014 1.63003e-014
rhumerus 13.619 15.9001 -77.8392
rradius 92.7717
rwrist 2.87966
rhand -22.214 9.61132
rfingers 7.12502
rthumb 4.20209 -20.327
lclavicle -1.99779e-014 1.63003e-014
lhumerus 18.6805 -24.4262 76.636
lradius 85.5995
lwrist -12.2075
lhand -9.42641 31.8214
lfingers 7.12502
lthumb 16.5359 61.1368
rfemur -62.8226 -19.2493 2.38947
rtibia 99.7612
rfoot -5.86141 -4.1004
rtoes -2.26157
lfemur -61.1037 17.6284 1.02581
ltibia 94.5089
lfoot -6.46536 -17.6281
ltoes -18.7383
213
root 7.09605 9.44625 -18.1647 -28.0172 1.61817 -0.0532483
lowerback 36.386 2.76697 -2.84317
upperback 11.9797 2.56652 0.624272
thorax -4.93866 1.17758 1.23446
lowerneck -19.8557 -5.33674 -10.889
upperneck 13.0716 -6.05993 10.2755
head 7.95256 -2.46055 4.44825
rclavicle -3.47873e-016 -4.77083e-015
rhumerus 14.8992 16.0992 -77.6984
rradius 92.0258
rwrist 2.09657
rhand -22.0725 8.93309
rfingers 7.12502
rthumb 4.33872 -21.0025
lclavicle -3.47873e-016 -4.77083e-015
lhumerus 19.9789 -24.5589 76.4611
lradius 85.4686
lwrist -10.0849
lhand -8.87061 32.7024
lfingers 7.12502
lthumb 17.071 61.9723
rfemur -63.0333 -19.5894 2.35942
rtibia 99.8158
rfoot -5.69029 -3.82477
rtoes -4.34028
lfemur -61.5501 17.6779 0.827926
ltibia 94.6516
lfoot -6.49495 -17.6267
ltoes -18.9066
214
root 7.09887 9.44386 -18.1575 -27.9124 1.75308 0.17877
lowerback 36.2573 2.68977 -3.24272
upperback 11.9075 2.33582 0.64038
thorax -4.97502 1.05598 1.54301
lowerneck -20.5032 -5.32218 -11.145
upperneck 13.7851 -5.90718 10.066
head 8.28339 -2.40323 4.44419
rclavicle 9.79014e-015 7.55382e-015
rhumerus 16.8275 16.4606 -77.4548
rradius 91.1645
rwrist 2.15801
rhand -21.2878 7.955
rfingers 7.12502
rthumb 5.09646 -21.9637
lclavicle 9.79014e-015 7.55382e-015
lhumerus 21.4431 -24.0515 76.2925
lradius 85.1702
lwrist -8.46107
lhand -8.27376 33.5745
lfingers 7.12502
lthumb 17.6454 62.7938
rfemur -63.251 -19.9551 2.26848
rtibia 99.9931
rfoot -5.55009 -3.61975
rtoes -8.29029
lfemur -61.7471 17.7455 0.476623
ltibia 94.7873
lfoot -6.46342 -17.6424
ltoes -18.9842
215
root 7.0982 9.44706 -18.1519 -27.8914 1.85774 0.435315
lowerback 36.3158 2.71912 -3.62951
upperback 11.6701 2.22923 0.605647
thorax -5.25639 1.00188 1.73991
lowerneck -20.4916 -5.20578 -11.3851
upperneck 14.2489 -5.73801 10.2079
head 8.43012 -2.323 4.56493
rclavicle 1.44119e-015 -1.03368e-014
rhumerus 18.0982 16.5746 -77.4868
rradius 90.3777
rwrist 2.53927
rhand -20.657 6.70477
rfingers 7.12502
rthumb 5.70552 -23.1984
lclavicle 1.44119e-015 -1.03368e-014
lhumerus 22.5325 -23.8531 76.2147
lradius 84.689
lwrist -7.53321
lhand -7.7786 34.123
lfingers 7.12502
lthumb 18.1219 63.2988
rfemur -63.3734 -20.2301 2.17333
rtibia 100.131
rfoot -5.76033 -3.80341
rtoes -9.05002
lfemur -61.7224 17.7666 0.230246
ltibia 94.8603
lfoot -6.63574 -17.8155
ltoes -19.6309
216
root 7.09716 9.45228 -18.1412 -27.7733 1.90716 0.523495
lowerback 36.1431 2.77491 -3.80039
upperback 11.4287 2.24365 0.592225
thorax -5.46529 1.01184 1.80956
lowerneck -20.0347 -5.09939 -11.407
upperneck 14.3528 -5.65804 10.2823
head 8.38029 -2.29173 4.61043
rclavicle 2.68359e-015 1.63003e-014
rhumerus 19.0576 16.5966 -77.4518
rradius 89.5368
rwrist 2.60961
rhand -20.6695 5.86327
rfingers 7.12502
rthumb 5.69342 -24.0402
lclavicle 2.68359e-015 1.63003e-014
lhumerus 23.6017 -23.9692 76.0104
lradius 84.1845
lwrist -6.81732
lhand -7.30721 35.0004
lfingers 7.12502
lthumb 18.5753 64.1335
rfemur -63.3479 -20.1564 1.83048
rtibia 100.047
rfoot -5.98305 -3.68092
rtoes -4.01887
lfemur -61.7059 17.8485 0.126224
ltibia 94.8227
lfoot -7.07498 -17.9456
ltoes -20.737
